<?xml version="1.0" standalone="no"?>
<!DOCTYPE svg PUBLIC "-//W3C//DTD SVG 1.1//EN" "http://www.w3.org/Graphics/SVG/1.1/DTD/svg11.dtd">
<svg xmlns="http://www.w3.org/2000/svg">
<metadata>Copyright (C) 2017 by original authors @ fontello.com</metadata>
<defs>
<font id="fontello" horiz-adv-x="1000" >
<font-face font-family="fontello" font-weight="400" font-stretch="normal" units-per-em="1000" ascent="850" descent="-150" />
<missing-glyph horiz-adv-x="1000" />
<glyph glyph-name="way-bottom" unicode="&#xe800;" d="M994 366c-9 8-23 8-32 0l-437-438v897c0 12-10 22-22 22-12 0-22-10-22-22v-897l-437 438c-9 8-23 8-32 0-8-9-8-23 0-32l475-475c1-1 3-2 4-2 0-1 1-1 1-1 1-1 2-1 3-1 0-1 1-1 2-1 0 0 1-1 2-1 1 0 3 0 4 0s3 0 4 0c1 0 2 1 2 1 1 0 2 0 2 1 1 0 2 0 3 1 0 0 1 0 1 1 1 0 3 1 4 2l475 475c8 9 8 23 0 32z" horiz-adv-x="1000" />

<glyph glyph-name="way-left" unicode="&#xe801;" d="M516 841c8-9 8-23 0-32l-438-437h897c12 0 22-10 22-22 0-12-10-22-22-22h-897l438-437c8-9 8-23 0-32-9-8-23-8-32 0l-475 475c-1 1-1 3-2 4-1 0-1 1-1 1-1 1-1 2-1 3-1 0-1 1-1 2 0 0 0 1-1 2 0 1 0 3 0 4s0 3 0 4c1 1 1 2 1 2 0 1 0 2 1 3 0 0 0 1 1 2 0 0 0 1 1 1 1 2 1 3 2 4l475 475c9 8 23 8 32 0z" horiz-adv-x="1000" />

<glyph glyph-name="way-right" unicode="&#xe802;" d="M484 841c-8-9-8-23 0-32l438-437h-897c-12 0-22-10-22-22 0-12 10-22 22-22h897l-438-437c-8-9-8-23 0-32 9-8 23-8 32 0l475 475c1 1 2 3 2 4 1 0 1 1 1 1 1 1 1 2 1 3 1 0 1 1 1 2 0 0 1 1 1 2 0 1 0 3 0 4s0 3 0 4c0 1-1 2-1 2 0 1 0 2-1 2 0 1 0 2-1 3 0 0 0 1-1 1 0 1-1 3-2 4l-475 475c-9 8-23 8-32 0z" horiz-adv-x="1000" />

<glyph glyph-name="way-top" unicode="&#xe803;" d="M12 334c9-8 23-8 32 0l437 438v-897c0-12 10-22 22-22 12 0 22 10 22 22v897l437-438c9-8 23-8 32 0 8 9 8 23 0 32l-475 475c-1 1-3 2-4 2 0 1-1 1-1 1-1 1-2 1-3 1 0 1-1 1-2 1 0 0-1 1-2 1-1 0-3 0-4 0s-3 0-4 0c-1 0-2-1-2-1-1 0-2 0-2-1-1 0-2 0-3-1 0 0-1 0-1-1-1 0-3-1-4-2l-475-475c-8-9-8-23 0-32z" horiz-adv-x="1000" />

<glyph glyph-name="youtube" unicode="&#xe804;" d="M904 697s-52 14-403 14c-351 0-404-14-404-14s-97-21-97-246v-101c0-77 0-101 0-101 0-225 98-246 98-246s52-14 403-14c351 0 403 14 403 14s97 21 97 246v101 101c0 225-97 246-97 246z m-511-520v361l320-181-320-180z" horiz-adv-x="1000" />

<glyph glyph-name="homepage" unicode="&#xe805;" d="M899 422v328h-175v-152l-224 227-499-494 87-87 412 407 411-417 88 87m-849-70v-375h250v225c0 55 44 100 100 100s99-45 99-100l-1-225h251v375l-349 348-350-348h0z" horiz-adv-x="1000" />

<glyph glyph-name="arr-bold-bottom" unicode="&#xe806;" d="M500 56c-11 0-23 4-31 13l-450 450c-17 17-17 45 0 62 17 17 45 17 62 0l419-419 419 419c17 17 45 17 62 0 17-17 17-45 0-62l-450-450c-8-9-20-13-31-13z" horiz-adv-x="1000" />

<glyph glyph-name="arr-bold-end" unicode="&#xe807;" d="M556 381l-450 450c-17 17-45 17-62 0-17-17-17-45 0-62l419-419-419-419c-17-17-17-45 0-62 8-9 20-13 31-13s23 4 31 13l450 450c17 17 17 45 0 62z m400 0l-450 450c-17 17-45 17-62 0-17-17-17-45 0-62l419-419-419-419c-17-17-17-45 0-62 9-9 20-13 31-13s23 4 31 13l450 450c17 17 17 45 0 62z" horiz-adv-x="1000" />

<glyph glyph-name="arr-bold-first" unicode="&#xe808;" d="M139 350l418 419c18 17 18 45 0 62-17 17-45 17-62 0l-450-450c-17-17-17-45 0-62l450-450c9-9 20-13 31-13 11 0 23 4 31 13 18 17 18 45 0 62l-418 419z m398 0l419 419c17 17 17 45 0 62-17 17-45 17-62 0l-450-450c-17-17-17-45 0-62l450-450c8-9 20-13 31-13s23 4 31 13c17 17 17 45 0 62l-419 419z" horiz-adv-x="1000" />

<glyph glyph-name="arr-bold-left" unicode="&#xe809;" d="M700-144c-11 0-23 4-31 13l-450 450c-17 17-17 45 0 62l450 450c17 17 45 17 62 0 17-17 17-45 0-62l-419-419 419-419c17-17 17-45 0-62-8-9-20-13-31-13z" horiz-adv-x="1000" />

<glyph glyph-name="arr-bold-right" unicode="&#xe80a;" d="M300-144c-11 0-23 4-31 13-17 17-17 45 0 62l419 419-419 419c-17 17-17 45 0 62 17 17 45 17 62 0l450-450c17-17 17-45 0-62l-450-450c-8-9-20-13-31-13z" horiz-adv-x="1000" />

<glyph glyph-name="arr-bold-top" unicode="&#xe80b;" d="M950 106c-11 0-23 4-31 13l-419 419-419-419c-17-17-45-17-62 0-17 17-17 45 0 62l450 450c17 17 45 17 62 0l450-450c17-17 17-45 0-62-8-9-20-13-31-13z" horiz-adv-x="1000" />

<glyph glyph-name="arr-bottom" unicode="&#xe80c;" d="M991 591c-9 8-23 8-32 0l-459-460-459 460c-9 8-23 8-32 0-8-9-8-23 0-32l475-475c5-4 10-6 16-6 6 0 11 2 16 6l475 475c8 9 8 23 0 32z" horiz-adv-x="1000" />

<glyph glyph-name="arr-left" unicode="&#xe80d;" d="M237 364l475 475c9 9 23 9 32 0 8-9 8-23 0-31l-460-460 460-459c8-9 8-23 0-31-5-5-10-7-16-7-6 0-11 2-16 7l-475 475c-8 8-8 22 0 31z" horiz-adv-x="1000" />

<glyph glyph-name="arr-right" unicode="&#xe80e;" d="M766 364l-475 475c-9 9-23 9-32 0-8-9-8-23 0-31l460-460-460-459c-8-9-8-23 0-31 5-5 10-7 16-7 6 0 11 2 16 7l475 475c8 8 8 22 0 31z" horiz-adv-x="1000" />

<glyph glyph-name="arr-top" unicode="&#xe80f;" d="M991 141l-475 475c-9 8-23 8-32 0l-475-475c-8-9-8-23 0-32 5-4 10-6 16-6 6 0 11 2 16 6l459 460 459-460c5-4 10-6 16-6s11 2 16 6c8 9 8 23 0 32z" horiz-adv-x="1000" />

<glyph glyph-name="checkbox" unicode="&#xe812;" d="M808 770c62 0 112-50 112-112v-616c0-62-50-112-112-112h-616c-62 0-112 50-112 112v616c0 62 50 112 112 112h616m0 80h-616c-106 0-192-86-192-192v-616c0-106 86-192 192-192h616c106 0 192 86 192 192v616c0 106-86 192-192 192z" horiz-adv-x="1000" />

<glyph glyph-name="checkbox-checked" unicode="&#xe813;" d="M808 850h-616c-106 0-192-86-192-192v-616c0-106 86-192 192-192h616c106 0 192 86 192 192v616c0 106-86 192-192 192z m112-808c0-62-50-112-112-112h-616c-62 0-112 50-112 112v616c0 62 50 112 112 112h616c62 0 112-50 112-112v-616z m-126 489c17-18 17-46-1-63l-359-350c-8-8-19-12-31-12 0 0-1 0-1 0-12 0-24 6-32 15l-166 188c-16 19-14 47 4 63 19 16 47 14 63-4l135-154 326 318c17 17 45 16 62-1z" horiz-adv-x="1000" />

<glyph glyph-name="choice" unicode="&#xe814;" d="M991 691c-9 8-23 8-32 0l-633-634-284 332c-8 10-22 11-31 3s-11-22-3-31l300-350c4-5 10-8 16-8 1 0 1 0 1 0 6 0 12 2 16 6l650 650c8 9 8 23 0 32z" horiz-adv-x="1000" />

<glyph glyph-name="choice-bold" unicode="&#xe815;" d="M334 6c0 0-1 0-1 0-12 0-24 6-32 15l-284 323c-16 18-14 46 4 62 18 16 46 15 62-4l254-288 582 568c18 17 46 16 63-1 17-18 16-46-1-63l-616-600c-8-8-19-12-31-12z" horiz-adv-x="1000" />

<glyph glyph-name="close" unicode="&#xe816;" d="M531 350l460 459c8 9 8 23 0 32-9 8-23 8-32 0l-459-460-459 460c-9 8-23 8-32 0-8-9-8-23 0-32l460-459-460-459c-8-9-8-23 0-32 5-4 10-6 16-6 6 0 11 2 16 6l459 460 459-460c5-4 10-6 16-6s11 2 16 6c8 9 8 23 0 32l-460 459z" horiz-adv-x="1000" />

<glyph glyph-name="confirm" unicode="&#xe818;" d="M500 847c-274 0-497-223-497-497 0-274 223-497 497-497 274 0 497 223 497 497 0 274-223 497-497 497z m0-950c-250 0-453 203-453 453 0 250 203 453 453 453 250 0 453-203 453-453 0-250-203-453-453-453z m209 619l-308-309-134 157c-8 10-22 11-31 3-10-8-11-22-3-31l150-175c4-5 10-8 16-8 0 0 1 0 1 0 6 0 12 2 16 6l325 325c8 9 8 23 0 32-9 8-23 8-32 0z" horiz-adv-x="1000" />

<glyph glyph-name="expand" unicode="&#xe81c;" d="M975 247c-12 0-22-10-22-22v-297l-312 313c-9 8-23 8-32 0-8-9-8-23 0-32l313-312h-297c-12 0-22-10-22-22 0-12 10-22 22-22h350c2 0 3 0 4 0 1 0 2 1 2 1 1 0 2 0 2 1 1 0 2 0 3 1 0 0 1 0 1 1 3 1 5 3 6 6 1 0 1 1 1 1 1 1 1 2 1 3 1 0 1 1 1 2 0 0 1 1 1 2 0 1 0 3 0 4v350c0 12-10 22-22 22z m22 582c0 1-1 2-1 2 0 1 0 2-1 2 0 1 0 2-1 3 0 0 0 1-1 1-1 3-3 5-6 6 0 1-1 1-1 1-1 1-2 1-3 1 0 1-1 1-2 1 0 0-1 1-2 1-1 0-2 0-4 0h-350c-12 0-22-10-22-22s10-22 22-22h297l-313-312c-8-9-8-23 0-32 5-4 10-6 16-6 6 0 11 2 16 6l312 313v-297c0-12 10-22 22-22s22 10 22 22v350c0 1 0 3 0 4z m-606-588c-9 8-23 8-32 0l-312-313v297c0 12-10 22-22 22s-22-10-22-22v-350c0-2 0-3 0-4 1-1 1-2 1-2 0-1 0-2 1-2 0-1 0-2 1-3 0 0 0-1 1-1 1-3 3-5 6-6 0-1 1-1 1-1 1-1 2-1 3-1 0-1 1-1 2-1 0 0 1-1 2-1 1 0 3 0 4 0h350c12 0 22 10 22 22s-10 22-22 22h-297l313 312c8 9 8 23 0 32z m6 584c0 12-10 22-22 22h-350c-1 0-3 0-4 0-1 0-2-1-2-1-1 0-2 0-2-1-1 0-2 0-3-1 0 0-1 0-1-1-3-1-5-3-6-6-1 0-1-1-1-1-1-1-1-2-1-3-1 0-1-1-1-2 0 0 0-1-1-2 0-1 0-2 0-4v-350c0-12 10-22 22-22s22 10 22 22v297l312-313c5-4 10-6 16-6 6 0 11 2 16 6 8 9 8 23 0 32l-313 312h297c12 0 22 10 22 22z" horiz-adv-x="1000" />

<glyph glyph-name="facebook" unicode="&#xe81d;" d="M582-148h-189v499h-95v172h95v103c0 141 53 224 205 224h126v-172h-79c-59 0-63-24-63-69l0-86h143l-17-172h-126v-499z" horiz-adv-x="1000" />

<glyph glyph-name="facebook2" unicode="&#xe81e;" d="M871 850h-743c-70 0-128-62-128-138v-725c0-75 58-137 128-137h743c71 0 128 62 128 137v725c0 76-57 138-128 138z m-85-593h-107v-407h-159v407h-80v141h80v84c0 114 45 182 173 182h106v-140h-67c-49 0-53-20-53-56l0-70h121l-14-141z" horiz-adv-x="1000" />

<glyph glyph-name="menu" unicode="&#xe826;" d="M25 650h950c12 0 22 10 22 22 0 12-10 22-22 22h-950c-12 0-22-10-22-22 0-12 10-22 22-22z m950-603h-950c-12 0-22-10-22-22 0-12 10-22 22-22h950c12 0 22 10 22 22 0 12-10 22-22 22z m0 325h-950c-12 0-22-10-22-22s10-22 22-22h950c12 0 22 10 22 22 0 12-10 22-22 22z" horiz-adv-x="1000" />

<glyph glyph-name="message" unicode="&#xe827;" d="M125-148c-10 0-19 7-21 17-3 10 2 20 11 25 1 0 99 51 155 133h-170c-53 0-97 44-97 97v626c0 54 44 97 97 97h801c53 0 97-43 97-97v-626c0-53-44-97-97-97h-325c-58-64-190-164-450-175l-1 0z m-25 951c-29 0-53-24-53-53v-626c0-29 24-53 53-53h208c7 0 14-3 18-10 4-6 5-14 2-21-29-59-77-105-117-136 195 26 294 109 338 160 4 5 11 7 17 7h335c29 0 53 24 53 53v626c0 29-24 53-53 53h-801z m475-550h-350c-12 0-22 9-22 22s10 22 22 22h351c12 0 22-10 22-22s-10-22-22-22z m201 150h-551c-12 0-22 10-22 22s10 22 22 22h551c12 0 22-10 22-22s-10-22-22-22z m0 150h-551c-12 0-22 10-22 22s10 22 22 22h551c12 0 22-10 22-22s-10-22-22-22z" horiz-adv-x="1000" />

<glyph glyph-name="person" unicode="&#xe82a;" d="M960 50l-266 126c-19 9-30 16-37 21 54 60 81 120 82 122 36 80 36 149 36 152v95c0 49-2 63-3 67-1 2-59 216-273 216-215 0-269-214-269-217-1-3-3-17-3-66v-95c0-3 0-72 36-152 1-2 28-62 82-122-7-5-18-11-37-21l-267-126c-14-7-38-31-38-75v-49c0-2 0-18 8-35 12-25 35-38 64-38h852c29 0 51 13 63 38 9 17 9 33 9 35v49c0 44-24 68-39 75z m-5-124c0-9-4-29-28-29h-852c-25 0-28 20-28 29v49c0 25 12 34 14 36l266 125c56 28 68 43 70 58 0 8-2 16-8 21-57 58-86 122-86 122-31 71-32 133-32 134v95c0 42 1 54 2 57 3 14 50 181 226 181 175 0 226-166 230-181 0-3 2-16 2-57v-95c0-1-1-63-32-134 0 0-29-64-86-122-6-5-9-13-8-21 2-15 14-30 70-58l265-125c3-2 15-11 15-36v-49z" horiz-adv-x="1000" />

<glyph glyph-name="photo" unicode="&#xe82b;" d="M900 622h-137l-69 114c-4 7-11 11-19 11h-350c-8 0-15-4-19-11l-68-114h-138c-53 0-97-43-97-97v-500c0-54 44-97 97-97h800c54 0 97 43 97 97v500c0 54-43 97-97 97z m53-597c0-29-24-53-53-53h-800c-29 0-53 24-53 53v500c0 29 24 53 53 53h150c8 0 15 4 19 11l69 114h325l68-114c4-7 11-11 19-11h150c29 0 53-24 53-53v-500z m-453 497c-122 0-222-100-222-222 0-122 100-222 222-222 122 0 222 100 222 222s-100 222-222 222z m0-400c-98 0-178 80-178 178 0 98 80 178 178 178s178-80 178-178c0-98-80-178-178-178z" horiz-adv-x="1000" />

<glyph glyph-name="play" unicode="&#xe82c;" d="M988 368l-722 475c-7 5-16 5-23 1-7-3-11-11-11-19v-950c0-8 4-16 11-19 3-2 7-3 11-3 4 0 8 1 12 4l722 475c6 4 10 11 10 18 0 7-4 14-10 18z" horiz-adv-x="1000" />

<glyph glyph-name="paenseul" unicode="&#xe82d;" d="M1079-150h-1032a47 47 0 0 0-47 51 45 45 0 0 0 47 48h1032c29 0 44-21 44-48s-15-51-44-51z m-222 740l-148 140 111 105a55 55 0 0 0 74 0l74-70a48 48 0 0 0 0-71z m-482-455l-148 139 445 421 148-140z m-235-82l50 187 148-140z" horiz-adv-x="1123" />

<glyph glyph-name="popup" unicode="&#xe82e;" d="M825 472c-12 0-22-10-22-22v-500c0-29-24-53-53-53h-650c-29 0-53 24-53 53v650c0 29 24 53 53 53h500c12 0 22 10 22 22s-10 22-22 22h-500c-53 0-97-43-97-97v-650c0-54 44-97 97-97h650c54 0 97 43 97 97v500c0 12-10 22-22 22z m173 353c0 2 0 3 0 4 0 1-1 2-1 2 0 1 0 2-1 2 0 1 0 2-1 3 0 0 0 1-1 1 0 1-1 2-2 3 0 0 0 1 0 1-1 1-2 2-4 2 0 1-1 1-1 1-1 1-2 1-2 1-1 1-2 1-3 1 0 0-1 1-2 1-1 0-2 0-4 0h-388c-13 0-23-10-23-22s10-22 23-22h335l-464-462c-8-9-8-23 0-32 5-4 10-6 16-6 6 0 11 2 16 6l463 463v-335c0-13 10-23 22-23s22 10 22 23v388c0 0 0 0 0 0z" horiz-adv-x="1000" />

<glyph glyph-name="quote" unicode="&#xe830;" d="M0 205c0 212 128 450 374 561l48-69c-124-62-221-211-221-322 0-76 48-176 180-170 24-34 38-79 38-117 0-80-66-163-194-163-135 3-225 132-225 280z m567 0c0 212 138 450 384 561l48-69c-124-62-232-211-232-322 0-76 49-176 180-170 25-34 38-79 38-117 0-80-65-163-193-163-135 3-225 132-225 280z" horiz-adv-x="1000" />

<glyph glyph-name="radio" unicode="&#xe831;" d="M500 770c232 0 420-188 420-420s-188-420-420-420-420 188-420 420 188 420 420 420m0 80c-276 0-500-224-500-500 0-276 224-500 500-500 276 0 500 224 500 500s-224 500-500 500z" horiz-adv-x="1000" />

<glyph glyph-name="radio-checked" unicode="&#xe832;" d="M500 850c-276 0-500-224-500-500 0-276 224-500 500-500 276 0 500 224 500 500s-224 500-500 500z m0-920c-232 0-420 188-420 420s188 420 420 420c232 0 420-188 420-420s-188-420-420-420z m300 420c0-166-134-300-300-300s-300 134-300 300c0 166 134 300 300 300 166 0 300-134 300-300z" horiz-adv-x="1000" />

<glyph glyph-name="search" unicode="&#xe835;" d="M994-109l-338 337c59 66 94 153 94 247 0 205-167 372-372 372s-372-167-372-372c0-205 167-372 372-372 95 0 181 36 247 94l337-337c5-5 10-7 16-7 6 0 11 2 16 7 8 8 8 22 0 31z m-944 584c0 181 147 328 328 328s328-147 328-328c0-181-147-328-328-328-181 0-328 147-328 328z" horiz-adv-x="1000" />

<glyph glyph-name="warning" unicode="&#xe839;" d="M500 847c-274 0-497-223-497-497 0-274 223-497 497-497 274 0 497 223 497 497 0 274-223 497-497 497z m0-950c-250 0-453 203-453 453 0 250 203 453 453 453 250 0 453-203 453-453 0-250-203-453-453-453z m50 228c0-28-22-50-50-50-28 0-50 22-50 50s22 50 50 50c28 0 50-22 50-50z m-72 150v325c0 12 10 22 22 22 12 0 22-10 22-22v-325c0-12-10-22-22-22-12 0-22 10-22 22z" horiz-adv-x="1000" />

<glyph glyph-name="logout" unicode="&#xe83c;" d="M667 148l44 0-1-201c0-26-10-50-28-69-19-18-43-28-69-28h-512c-54 0-98 44-98 97v801c0 54 44 97 98 97h512c54 0 97-43 97-97l1-200c0-12-10-22-22-22h0c-12 0-22 10-22 22l-1 200c0 29-24 53-53 53h-512c-30 0-53-24-53-53v-801c0-29 23-53 53-53h512c29 0 53 24 53 53l1 201z m326 222l-124 124c-8 8-22 8-31 0-8-9-8-23 0-31l93-93h-417c-12 0-22-10-22-22s10-22 22-22h411l-87-87c-9-9-9-23 0-32 4-4 10-6 16-6s11 2 15 6l124 124c5 5 7 12 6 19 2 7 0 15-6 20z" horiz-adv-x="1000" />

<glyph glyph-name="star-outline" unicode="&#xe83d;" d="M809-135l-300 218-302-217 109 378-306 222h380l120 359 112-357h378l-302-228 111-375z m-605 538l185-135-67-241 187 134 183-133-67 235 187 142h-236l-68 215-72-217h-231z" horiz-adv-x="1000" />

<glyph glyph-name="star" unicode="&#xe83e;" d="M698 240l111-375-300 218-302-217 109 378-306 222h380l120 359 112-357h378l-302-228z" horiz-adv-x="1000" />

<glyph glyph-name="logo" unicode="&#xe848;" d="M472 599c-137-81-210-102-383-181-23-10-40-27-48-49l-16 161c-3 35 13 71 50 91 50 27 256 110 397 219 139-109 415-238 511-231l-56-131c-10-23-32-39-59-39-72 0-261 79-396 160z m226-174l-12-170c-2-26-17-49-38-62l-176-105-177 105c-21 13-36 36-38 62l-12 170-150-65c-38-16-48-53-46-77l9-90c6-57 38-105 84-133l330-197 329 197c46 28 78 76 84 133l19 193c-42-13-104 0-206 39z" horiz-adv-x="1000" />

<glyph glyph-name="minus" unicode="&#xe852;" d="M1000 355c0-53-45-95-100-95h-800c-55 0-100 42-100 95 0 52 45 95 100 95h800c55 0 100-43 100-95z" horiz-adv-x="1000" />

<glyph glyph-name="plus" unicode="&#xe853;" d="M1000 345c0-52-45-95-100-95h-305v-300c0-55-42-100-95-100s-95 45-95 100v300h-305c-55 0-100 43-100 95s45 96 100 96h305v309c0 55 42 100 95 100s95-45 95-100v-309h305c55 0 100-43 100-96z" horiz-adv-x="1000" />

<glyph glyph-name="social" unicode="&#xe854;" d="M833 517a166 166 0 0 0-126 58l-378-189a165 165 0 0 0 1-69l377-192a166 166 0 1 0-37-75l-376 192a167 167 0 1 0-3 218l379 190a167 167 0 1 0 163-133z m0-584a83 83 0 1 1-83 84 83 83 0 0 1 83-84z m-666 500a83 83 0 1 1 83-83 83 83 0 0 1-83 84z m666 334a83 83 0 1 1 84-84 83 83 0 0 1-84 84z" horiz-adv-x="1000" />

<glyph glyph-name="pinterest" unicode="&#xe855;" d="M500 850a500 500 0 0 1-198-959 445 445 0 0 0 9 114c10 40 65 273 65 273a193 193 0 0 0-17 79c0 74 44 131 97 131 46 0 68-35 68-76 0-45-29-114-44-178a78 78 0 0 1 79-96c95 0 159 122 159 266 0 110-74 193-208 193-153 0-247-114-247-241a145 145 0 0 1 33-98 24 24 0 0 0 7-28c-2-9-7-32-10-40a17 17 0 0 0-25-13c-70 29-103 106-103 192 0 142 121 313 359 313 191 0 317-138 317-287 0-197-110-344-271-344-54 0-105 29-123 62 0 0-29-116-35-138a421 421 0 0 0-50-106 500 500 0 1 1 138 981z" horiz-adv-x="1000" />

<glyph glyph-name="newsletter" unicode="&#xe856;" d="M1087 430v-580h-1087v580h10l203 275 4-4 0 149h653v-148l207-272z m-72-144l-22 40-229-105 251-248z m-46-364l-271 269-155-73-184 86 3-4-252-278z m-877 498l124-63v232z m1-94l-22-40v-306l228 251z m197 466v-471l253-127 254 127v471z m580-435l116 58-116 154z m-508 73h363v-73h-363z m0 145h363v-73h-363z m0 145h363v-73h-363z" horiz-adv-x="1087" />

<glyph glyph-name="download" unicode="&#xe89b;" d="M484-41c1-1 3-2 4-2 0-1 1-1 1-1 1-1 2-1 3-1 0-1 1-1 2-1 0 0 1-1 2-1 1 0 3 0 4 0s3 0 4 0c1 0 2 1 2 1 1 0 2 0 2 1 1 0 2 0 3 1 0 0 1 0 1 1 2 0 3 1 4 2l425 425c8 9 8 23 0 32-9 8-23 8-32 0l-387-388v797c0 12-10 22-22 22-12 0-22-10-22-22v-797l-387 388c-9 8-23 8-32 0-8-9-8-23 0-32l425-425z m491-62h-950c-12 0-22-10-22-22 0-12 10-22 22-22h950c12 0 22 10 22 22 0 12-10 22-22 22z" horiz-adv-x="1000" />
</font>
</defs>
</svg>
